<?xml version="1.0" encoding="UTF-8"?>
<svg version="1.1" xmlns="http://www.w3.org/2000/svg" width="69" height="69">
<path d="M0 0 C22.77 0 45.54 0 69 0 C69 22.77 69 45.54 69 69 C46.23 69 23.46 69 0 69 C0 46.23 0 23.46 0 0 Z " fill="#010101" transform="translate(0,0)"/>
<path d="M0 0 C22.77 0 45.54 0 69 0 C69 22.77 69 45.54 69 69 C46.23 69 23.46 69 0 69 C0 46.23 0 23.46 0 0 Z M12.08984375 15.17514038 C10.16955232 18.39052084 10.20320986 21.66357878 10.30859375 25.28515625 C10.30996841 26.06386581 10.31134308 26.84257538 10.3127594 27.6448822 C10.3217818 29.28300786 10.34530697 30.92111121 10.38256836 32.55883789 C10.43742403 35.05903732 10.4440964 37.55590135 10.44335938 40.05664062 C10.45810566 41.65367449 10.47559101 43.25068591 10.49609375 44.84765625 C10.49943222 45.59048355 10.50277069 46.33331085 10.50621033 47.09864807 C10.6564172 52.60010805 12.03752947 55.58986685 15.44165039 59.77050781 C20.53386173 63.78811337 31.83205927 62.2189061 38.0625 62.25 C39.09955078 62.270625 40.13660156 62.29125 41.20507812 62.3125 C47.49927758 62.34442999 52.42524706 62.05772402 58 59 C63.24013353 53.21177009 62.64513968 46.1106518 62.57641602 38.66674805 C62.56254851 36.56983535 62.59667358 34.47739647 62.63476562 32.38085938 C62.67446785 25.62354093 62.48653871 20.04116006 58.46459961 14.39819336 C54.47488756 10.5893784 50.23491913 10.65385836 44.9453125 10.59375 C43.77656082 10.57664978 43.77656082 10.57664978 42.584198 10.5592041 C40.93851111 10.54034755 39.29274945 10.52725337 37.64697266 10.51953125 C35.13960099 10.50011308 32.63550894 10.4380468 30.12890625 10.375 C28.52606104 10.36193828 26.92319249 10.35143797 25.3203125 10.34375 C24.57637238 10.3190564 23.83243225 10.29436279 23.06594849 10.2689209 C18.05469041 10.31144179 15.29229957 11.48428414 12.08984375 15.17514038 Z " fill="#010101" transform="translate(0,0)"/>
<path d="M0 0 C0.77633789 -0.00099701 1.55267578 -0.00199402 2.35253906 -0.00302124 C3.98643281 0.00163917 5.62034372 0.02097312 7.25390625 0.05419922 C9.74350417 0.10143924 12.22881677 0.09530696 14.71875 0.08203125 C16.31252532 0.09318591 17.90628275 0.10740643 19.5 0.125 C20.60649902 0.12226578 20.60649902 0.12226578 21.73535156 0.11947632 C26.8498612 0.25858216 29.85610104 1.42505498 33.75 4.7265625 C36.39866995 8.20181486 35.97901079 11.87120338 35.9453125 16.1171875 C35.9424826 16.82180115 35.93965271 17.52641479 35.93673706 18.25238037 C35.92557801 20.4939501 35.90048193 22.73511436 35.875 24.9765625 C35.86496464 26.49999421 35.85583976 28.02343221 35.84765625 29.546875 C35.82565291 33.27356836 35.79115272 37.00002583 35.75 40.7265625 C35.42 40.7265625 35.09 40.7265625 34.75 40.7265625 C34.720271 39.35721558 34.720271 39.35721558 34.68994141 37.96020508 C34.61163736 34.55873778 34.52493775 31.15769646 34.43261719 27.7565918 C34.39444048 26.28727388 34.35956818 24.81786611 34.328125 23.34838867 C34.28222711 21.23063136 34.22427628 19.1134866 34.1640625 16.99609375 C34.1326416 15.72354736 34.1012207 14.45100098 34.06884766 13.13989258 C33.75886378 9.8214511 33.44706755 7.58967969 31.75 4.7265625 C26.20173824 1.41572477 19.23736926 2.39216158 12.97558594 2.41088867 C10.75666366 2.414053 8.53907067 2.39054808 6.3203125 2.36523438 C4.90104334 2.36296145 3.48177061 2.36225786 2.0625 2.36328125 C0.77988281 2.36030029 -0.50273437 2.35731934 -1.82421875 2.35424805 C-5.51671286 2.7555489 -7.36105272 3.4248393 -10.25 5.7265625 C-12.76578373 9.12865285 -12.50811655 12.56160596 -12.515625 16.6875 C-12.51753845 17.35568756 -12.5194519 18.02387512 -12.52142334 18.71231079 C-12.52278097 20.12266416 -12.519114 21.5330302 -12.51074219 22.94335938 C-12.50006985 25.08752981 -12.5106337 27.23085606 -12.5234375 29.375 C-12.52211517 30.75000183 -12.51955126 32.12500314 -12.515625 33.5 C-12.51336914 34.74185059 -12.51111328 35.98370117 -12.50878906 37.26318359 C-12.2414765 40.8406326 -11.81685956 43.49425048 -10.25 46.7265625 C-6.3984014 49.12043651 -2.4314317 49.03072468 2.01953125 49.140625 C2.70053391 49.15999115 3.38153656 49.1793573 4.08317566 49.1993103 C6.24282593 49.25874382 8.40253057 49.3053445 10.5625 49.3515625 C12.03322544 49.38977578 13.50392929 49.42882944 14.97460938 49.46875 C18.56620789 49.56441433 22.15796913 49.64857825 25.75 49.7265625 C25.255 50.7165625 25.255 50.7165625 24.75 51.7265625 C20.71154588 51.77618903 16.67321113 51.81238882 12.63452148 51.83642578 C11.26209417 51.84645176 9.88968805 51.86007606 8.51733398 51.87744141 C6.53899473 51.90183877 4.56049633 51.91200734 2.58203125 51.921875 C1.39327393 51.93234863 0.2045166 51.94282227 -1.02026367 51.95361328 C-5.40800174 51.64515486 -8.17392985 50.65317846 -11.5 47.7890625 C-15.96367118 42.52830718 -14.5916363 34.03224177 -14.6550293 27.44897461 C-14.6766103 25.7641958 -14.71071519 24.07952914 -14.75756836 22.39526367 C-14.82471999 19.95701433 -14.85204716 17.52107592 -14.87109375 15.08203125 C-14.89892441 14.33495407 -14.92675507 13.58787689 -14.95542908 12.81816101 C-14.93983958 8.82535428 -14.31358264 6.22334103 -11.72680664 3.24975586 C-8.15855204 0.15767699 -4.58405107 -0.1144636 0 0 Z " fill="#363536" transform="translate(25.25,10.2734375)"/>
<path d="M0 0 C0.99 0.33 1.98 0.66 3 1 C3.0995024 5.28663998 3.1717631 9.57265331 3.21972656 13.86010742 C3.23973822 15.31595584 3.26695677 16.77172494 3.30175781 18.22729492 C3.66764059 33.93335142 3.66764059 33.93335142 -1 39 C-5.97993145 40.82285724 -10.19339965 41.19529462 -15.46484375 40.9765625 C-16.48210289 40.93902359 -16.48210289 40.93902359 -17.51991272 40.90072632 C-19.65968255 40.81936507 -21.79840934 40.72246167 -23.9375 40.625 C-25.39904764 40.56667419 -26.86063654 40.50937295 -28.32226562 40.453125 C-31.8820644 40.31391514 -35.44110226 40.16077156 -39 40 C-39 39.67 -39 39.34 -39 39 C-37.99098633 38.99589111 -36.98197266 38.99178223 -35.94238281 38.98754883 C-32.19219148 38.96574671 -28.4430478 38.91144782 -24.69335938 38.84741211 C-23.07171687 38.82424116 -21.44992407 38.80983846 -19.828125 38.80444336 C-17.49384004 38.79514627 -15.16191559 38.754147 -12.828125 38.70703125 C-12.10506165 38.7109639 -11.38199829 38.71489655 -10.63702393 38.71894836 C-7.08921753 38.61652398 -5.29131758 38.24512459 -2.54882812 35.9375 C-0.65024662 32.33665941 -0.39765101 29.27323107 -0.390625 25.29296875 C-0.37408875 24.56757401 -0.35755249 23.84217926 -0.34051514 23.09480286 C-0.29217523 20.79228127 -0.27069715 18.49041934 -0.25 16.1875 C-0.22182832 14.62040977 -0.1918992 13.05335008 -0.16015625 11.48632812 C-0.08642109 7.65760645 -0.03676179 3.82924794 0 0 Z " fill="#1C1B1C" transform="translate(59,20)"/>
<path d="M0 0 C0.66 0 1.32 0 2 0 C2.226875 0.94875 2.45375 1.8975 2.6875 2.875 C3.66163493 6.1009805 3.66163493 6.1009805 6.12768555 7.16943359 C9.58522355 8.16922486 12.67053228 8.32519833 16.26953125 8.4140625 C16.95053391 8.43342865 17.63153656 8.4527948 18.33317566 8.4727478 C20.49282593 8.53218132 22.65253057 8.578782 24.8125 8.625 C26.28322544 8.66321328 27.75392929 8.70226694 29.22460938 8.7421875 C32.81620789 8.83785183 36.40796913 8.92201575 40 9 C39.67 9.66 39.34 10.32 39 11 C34.96154588 11.04962653 30.92321113 11.08582632 26.88452148 11.10986328 C25.51209417 11.11988926 24.13968805 11.13351356 22.76733398 11.15087891 C20.78899473 11.17527627 18.81049633 11.18544484 16.83203125 11.1953125 C15.64327393 11.20578613 14.4545166 11.21625977 13.22973633 11.22705078 C8.90520736 10.92303597 6.1138653 9.89728038 2.75 7.1875 C0.79508105 4.74385131 0.3419108 3.07719719 0 0 Z " fill="#292829" transform="translate(11,51)"/>
<path d="M0 0 C3.82792868 1.5595265 6.36359864 3.83631836 9 7 C8.69713162 10.30521583 7.40189968 11.98495776 5.0625 14.25 C4.53785156 14.77078125 4.01320313 15.2915625 3.47265625 15.828125 C2 17 2 17 0 17 C0.57352893 13.12867972 2.48704352 10.91827204 5 8 C3.7625 6.8553125 3.7625 6.8553125 2.5 5.6875 C0 3 0 3 0 0 Z " fill="#D7D7D7" transform="translate(25,26)"/>
<path d="M0 0 C3.96 0 7.92 0 12 0 C12 0.99 12 1.98 12 3 C8.04 3 4.08 3 0 3 C0 2.01 0 1.02 0 0 Z " fill="#C3C3C3" transform="translate(35,43)"/>
<path d="M0 0 C0.99 0.33 1.98 0.66 3 1 C2.04882866 2.1725131 1.08882991 3.33787015 0.125 4.5 C-0.40867187 5.1496875 -0.94234375 5.799375 -1.4921875 6.46875 C-1.98976563 6.9740625 -2.48734375 7.479375 -3 8 C-3.66 8 -4.32 8 -5 8 C-4.45773019 4.20411134 -2.79872437 2.52788007 0 0 Z " fill="#D1D1D1" transform="translate(30,35)"/>
<path d="M0 0 C0.99 0.33 1.98 0.66 3 1 C2.236875 1.5775 1.47375 2.155 0.6875 2.75 C-1.66200917 4.71703093 -3.29323505 6.48476744 -5 9 C-5 5 -5 5 -2.5 2.25 C-1.675 1.5075 -0.85 0.765 0 0 Z " fill="#252525" transform="translate(17,11)"/>
</svg>
